<svg width="22" height="22" viewBox="0 0 22 22" fill="none" xmlns="http://www.w3.org/2000/svg">
<path d="M22 11C22 17.0751 17.0751 22 11 22C4.92487 22 0 17.0751 0 11C0 4.92487 4.92487 0 11 0C17.0751 0 22 4.92487 22 11Z" fill="#0E57D6"/>
<path d="M22 11C22 17.0751 17.0751 22 11 22C4.92487 22 0 17.0751 0 11C0 4.92487 4.92487 0 11 0C17.0751 0 22 4.92487 22 11Z" fill="#0E57D6"/>
<g clip-path="url(#clip0_19_424)">
<path d="M8.22 15.22C8.08752 15.3622 8.0154 15.5502 8.01882 15.7445C8.02225 15.9388 8.10096 16.1242 8.23838 16.2616C8.37579 16.399 8.56118 16.4777 8.75548 16.4812C8.94978 16.4846 9.13782 16.4125 9.28 16.28L14.28 11.28C14.3497 11.2103 14.405 11.1276 14.4427 11.0366C14.4804 10.9456 14.4998 10.848 14.4998 10.7495C14.4998 10.651 14.4804 10.5534 14.4427 10.4624C14.405 10.3713 14.3497 10.2886 14.28 10.219L9.28 5.21899C9.13848 5.08244 8.949 5.00693 8.75235 5.00873C8.5557 5.01053 8.36763 5.0895 8.22864 5.22862C8.08965 5.36774 8.01086 5.55589 8.00924 5.75254C8.00763 5.94919 8.08331 6.1386 8.22 6.27999L12.69 10.75L8.22 15.22Z" fill="white"/>
</g>
<defs>
<clipPath id="clip0_19_424">
<rect width="6.5" height="11.5" fill="white" transform="translate(8 5)"/>
</clipPath>
</defs>
</svg>
