<svg width="19" height="14" viewBox="0 0 19 14" fill="none" xmlns="http://www.w3.org/2000/svg">
<path d="M2.71722 7.68596H11.4672H14.9476L11.4224 11.2C11.2404 11.3932 11.1508 11.6144 11.1508 11.872C11.1508 12.138 11.2376 12.348 11.4252 12.5356C11.61 12.7204 11.8284 12.81 12.0888 12.81C12.3576 12.81 12.576 12.7232 12.7552 12.5412L17.8792 7.41716C18.0612 7.23516 18.148 7.01676 18.148 6.74796V6.74236C18.148 6.47636 18.0584 6.25796 17.8792 6.07596L12.7608 0.957559C12.5676 0.772759 12.3464 0.685959 12.0888 0.685959C11.8284 0.685959 11.6128 0.775559 11.428 0.957559L11.4252 0.960359L11.4196 0.965959C11.2376 1.14796 11.148 1.36356 11.148 1.62396C11.148 1.88156 11.2376 2.09996 11.4196 2.29596L14.9448 5.80996H11.47H11.4504H2.69482H1.82682C1.56642 5.80996 1.34802 5.89956 1.16322 6.08436C0.978424 6.26916 0.888824 6.48756 0.888824 6.74796C0.888824 7.00836 0.978424 7.22676 1.16602 7.41156C1.35082 7.59636 1.56922 7.68596 1.82962 7.68596H2.69762H2.71722Z" fill="#0E57D6"/>
<path d="M14.9504 5.80998L11.4224 2.29599C11.2404 2.10279 11.1508 1.88159 11.1508 1.62399C11.1508 1.3636 11.2404 1.148 11.4224 0.965997L11.428 0.960397L11.4308 0.957597C11.6128 0.775598 11.8312 0.685998 12.0916 0.685998C12.3492 0.685998 12.5676 0.775598 12.7636 0.957597L17.882 6.07878C18.064 6.26078 18.1508 6.47918 18.1508 6.74518V6.75078C18.1508 7.01958 18.0612 7.23798 17.882 7.41998L12.758 12.544C12.576 12.726 12.3576 12.8128 12.0916 12.8128C11.8284 12.8128 11.6128 12.7232 11.428 12.5384C11.2404 12.3508 11.1536 12.1408 11.1536 11.8748C11.1536 11.6172 11.2432 11.396 11.4252 11.2028L14.9504 7.68877H11.47V8.37477H13.29L10.9352 10.7212L10.9324 10.724L10.9296 10.7268C10.6216 11.0488 10.4648 11.4352 10.4648 11.8748C10.4648 12.3228 10.6244 12.7092 10.9408 13.0228C11.2572 13.3392 11.6436 13.4988 12.0888 13.4988C12.5424 13.4988 12.9288 13.3392 13.2424 13.0284L18.3664 7.90437C18.6772 7.59078 18.8368 7.20438 18.8368 6.75078V6.74798C18.8368 6.29438 18.68 5.90798 18.3664 5.59438L13.2424 0.470399L13.2368 0.464799C12.912 0.1568 12.5284 0 12.0916 0C11.6464 0 11.26 0.159599 10.9464 0.473198L10.9436 0.475998L10.938 0.481599C10.6244 0.792398 10.4648 1.1788 10.4648 1.62399C10.4648 2.06079 10.6216 2.44719 10.9296 2.77199L10.9324 2.77479L13.29 5.12398H11.47V5.80998H14.9504Z" fill="#0E57D6"/>
<path d="M0.678804 7.8988C0.995199 8.2152 1.38159 8.3748 1.82678 8.3748H2.69477V7.6888H1.82678C1.56639 7.6888 1.34799 7.5992 1.1632 7.4144C0.978399 7.2268 0.886 7.0112 0.886 6.7508C0.886 6.4904 0.975599 6.272 1.1604 6.0872C1.34519 5.9024 1.56359 5.8128 1.82398 5.8128H2.69197V5.1268H1.82398C1.37879 5.1268 0.992398 5.2864 0.676004 5.6028C0.359609 5.9192 0.200012 6.3056 0.200012 6.7508C0.202812 7.1932 0.36241 7.5796 0.678804 7.8988Z" fill="#0E57D6"/>
<path d="M11.47 7.686H2.72H2.6976V8.37192H11.4504H11.47V7.686Z" fill="#0E57D6"/>
<path d="M2.69476 5.80992H11.4476H11.4672V5.12392H2.71716H2.69476V5.80992Z" fill="#0E57D6"/>
</svg>
