<svg width="18" height="18" viewBox="0 0 18 18" fill="none" xmlns="http://www.w3.org/2000/svg">
<path d="M8.63815 0.00126599C8.63619 0.00324516 8.47994 0.0111618 8.29244 0.0190785C8.10494 0.0269952 7.92526 0.0349118 7.89205 0.0388702C7.75924 0.0507452 7.59127 0.0705368 7.4819 0.0883493C7.0483 0.161578 6.87447 0.191266 6.86276 0.199183C6.85104 0.207099 6.68112 0.244703 6.60299 0.256578C6.56197 0.262516 6.02096 0.41887 5.96822 0.438662C5.9526 0.446578 5.93502 0.452516 5.92916 0.454495C5.9233 0.456474 5.90182 0.464391 5.88033 0.472308C5.85885 0.480224 5.77486 0.511891 5.69479 0.543558C5.61471 0.573245 5.52682 0.604912 5.49947 0.612828C5.4526 0.626683 5.39986 0.650433 5.10885 0.785016C4.93111 0.866162 4.59713 1.04033 4.44479 1.12741C4.37447 1.16897 4.27877 1.22439 4.22994 1.2521C4.08541 1.33522 3.92721 1.44012 3.92135 1.45793C3.91744 1.46585 3.90572 1.47377 3.894 1.47377C3.88228 1.47377 3.84127 1.4995 3.80025 1.53314C3.75924 1.56481 3.71627 1.59252 3.70455 1.59252C3.69283 1.59252 3.68307 1.59845 3.68307 1.60637C3.68111 1.61627 3.63619 1.65387 3.58346 1.69148C3.03658 2.07741 2.30611 2.78398 1.88619 3.33418C1.84908 3.38366 1.81392 3.4272 1.80806 3.43314C1.77681 3.46085 1.35885 4.07043 1.3022 4.17137C1.28267 4.207 1.2026 4.34356 1.12642 4.47814C0.569783 5.45189 0.163532 6.70866 0.052204 7.8071C0.0404852 7.92189 0.0268134 8.05054 0.020954 8.09408C-0.000530415 8.2821 -0.00834292 9.16679 0.0111883 9.42012C0.0561103 10.0356 0.196735 10.8412 0.335407 11.2726C0.351032 11.3221 0.366657 11.3795 0.370564 11.4013C0.40572 11.5655 0.683064 12.2919 0.829548 12.6006C1.3022 13.5882 1.84908 14.3641 2.60299 15.1102C2.93502 15.4407 2.97799 15.4803 3.24361 15.6961C4.56393 16.7707 6.07565 17.4041 7.77682 17.598C8.15963 17.6416 9.12838 17.6455 9.51315 17.6079C11.2436 17.4318 12.8686 16.747 14.2104 15.6268C14.5464 15.3457 15.0053 14.8846 15.3452 14.4828C15.3745 14.4512 15.4799 14.3126 15.5815 14.178C16.5815 12.852 17.1772 11.3063 17.3374 9.62793C17.3647 9.33106 17.3745 8.57502 17.353 8.26231C17.3139 7.65668 17.2143 7.07679 17.0327 6.392C17.0171 6.32668 16.9995 6.26335 16.9975 6.2495C16.9936 6.23564 16.9858 6.21783 16.978 6.21189C16.9702 6.20398 16.9643 6.18418 16.9643 6.16835C16.9643 6.13866 16.81 5.69533 16.7592 5.58054C16.7456 5.54689 16.7143 5.47366 16.6909 5.41429C16.601 5.18075 16.3647 4.69585 16.2456 4.49398C16.2007 4.42075 16.1635 4.35741 16.1635 4.35345C16.1635 4.33762 15.8393 3.82304 15.7885 3.7597C15.7807 3.74783 15.7182 3.6647 15.6518 3.57366C15.4272 3.27085 15.3745 3.20158 15.1948 2.99377C14.9741 2.74043 14.5132 2.27731 14.3276 2.12689C13.9565 1.8221 13.8764 1.75679 13.8393 1.73106C13.8159 1.71523 13.7827 1.6895 13.7671 1.67366C13.7514 1.65783 13.685 1.61033 13.6186 1.56679C13.5522 1.52325 13.4936 1.48366 13.4878 1.47575C13.4819 1.46981 13.4467 1.44606 13.4096 1.42627C13.3725 1.4045 13.3159 1.36689 13.2866 1.34116C13.2553 1.31543 13.2221 1.29564 13.2124 1.29564C13.2026 1.29564 13.1577 1.27189 13.1147 1.24418C13.0698 1.21647 12.9936 1.17095 12.9448 1.14325C12.894 1.11554 12.8491 1.08387 12.8432 1.07595C12.8374 1.06606 12.8139 1.05616 12.7944 1.0522C12.7729 1.05022 12.7339 1.03241 12.7065 1.0146C12.6264 0.961162 11.9799 0.650433 11.8862 0.620745C11.8589 0.612828 11.7885 0.587099 11.7299 0.563349C11.5698 0.500016 11.3374 0.422828 11.271 0.410953C11.2397 0.405016 11.2085 0.39512 11.2026 0.387203C11.1967 0.377308 11.1714 0.365433 11.144 0.359495C11.1167 0.353558 11.0073 0.325849 10.9018 0.298141C10.6948 0.242724 10.6538 0.232828 10.4702 0.197203C10.4487 0.193245 10.4292 0.189287 10.4272 0.187308C10.4174 0.179391 10.2436 0.145745 10.1772 0.137828C10.1674 0.135849 10.1264 0.129912 10.0893 0.121995C9.93502 0.0923077 9.55416 0.048766 9.28854 0.0289743C9.0444 0.0111618 8.64791 -0.00467151 8.63815 0.00126599ZM9.50338 0.909703C10.1987 0.986891 10.7378 1.11158 11.3647 1.34314C13.4526 2.10908 15.1733 3.79335 15.9858 5.86356C16.1323 6.23564 16.3217 6.85512 16.3667 7.10648C16.3725 7.1322 16.3803 7.16981 16.3862 7.1896C16.3921 7.20741 16.3999 7.25887 16.4077 7.30241C16.4135 7.34595 16.4214 7.39543 16.4272 7.41127C16.4409 7.45679 16.4917 7.83283 16.5171 8.06439C16.5444 8.3296 16.5561 9.11929 16.5346 9.39043C16.5014 9.79418 16.4878 9.89908 16.4057 10.3404C16.3432 10.6749 16.1987 11.237 16.144 11.3597C16.1342 11.3815 16.1089 11.4527 16.0874 11.518C15.9389 11.9693 15.6128 12.6363 15.2983 13.135C15.2319 13.2419 15.1635 13.3448 15.1479 13.3626C15.1323 13.3824 15.0835 13.4477 15.0405 13.5071C14.9135 13.6852 14.7612 13.8812 14.6245 14.0395C14.3706 14.3364 13.7866 14.9004 13.5737 15.0568C13.5385 15.0805 13.4428 15.1538 13.3589 15.2191C13.0698 15.4407 12.5796 15.7515 12.3452 15.8643C12.271 15.8999 12.2046 15.9355 12.1987 15.9415C12.1538 15.9969 11.1674 16.3967 11.0796 16.3967C11.062 16.3967 11.0464 16.4066 11.0464 16.4204C11.0464 16.4323 11.0424 16.4382 11.0346 16.4323C11.0288 16.4264 10.9839 16.4343 10.9331 16.4501C10.8237 16.4838 10.5835 16.553 10.5288 16.5649C10.5073 16.5708 10.4506 16.5827 10.4018 16.5946C10.3061 16.6164 9.99752 16.6718 9.90377 16.6856C9.87252 16.6896 9.80221 16.7015 9.74752 16.7114C9.5776 16.745 9.1694 16.7727 8.79049 16.7787C8.35885 16.7846 7.8901 16.7529 7.51119 16.6936C7.0151 16.6144 6.46822 16.4818 6.16354 16.367C5.70065 16.1948 5.16549 15.9632 5.12838 15.9197C5.12252 15.9138 5.08736 15.8979 5.05025 15.8821C4.98775 15.8583 4.86861 15.793 4.71236 15.6961C4.67721 15.6743 4.63229 15.6486 4.6108 15.6367C4.58932 15.6228 4.50729 15.5694 4.42721 15.516C4.34908 15.4605 4.26314 15.4031 4.23775 15.3873C4.06979 15.2765 3.60885 14.9143 3.45846 14.7738C3.38424 14.7045 3.13619 14.471 3.08932 14.4254C3.04635 14.3839 2.71627 14.0157 2.67721 13.9682C2.65572 13.9405 2.59517 13.8614 2.54049 13.7941C2.1108 13.2518 1.78463 12.7135 1.49947 12.0821C1.15572 11.3181 0.976033 10.6314 0.841267 9.56856C0.81783 9.37262 0.815876 8.40481 0.841267 8.13366C0.989705 6.49095 1.59713 5.01054 2.65572 3.71023C2.8315 3.49252 3.36861 2.94825 3.59518 2.75627C4.91744 1.63606 6.42526 1.0146 8.15573 0.880016C8.4526 0.856266 9.1733 0.872099 9.50338 0.909703Z" fill="#FF9800"/>
<path d="M7.32954 2.73251C7.32758 2.73449 7.24555 2.74043 7.14594 2.74835C7.04633 2.75429 6.95258 2.76616 6.93501 2.7721C6.86079 2.80179 6.85688 2.84929 6.85102 3.65085C6.84712 4.17533 6.8393 4.44647 6.82368 4.47616C6.78071 4.56126 6.74165 4.56522 5.72993 4.56918C5.20063 4.57314 4.75337 4.58106 4.73383 4.58897C4.67329 4.61668 4.65962 4.70574 4.65376 5.06595C4.64594 5.50335 4.66352 5.83585 4.69673 5.87543C4.71626 5.89918 4.8061 5.90512 5.20258 5.91105C5.65766 5.91699 5.69087 5.91897 5.78266 5.96251C5.90766 6.02189 5.9604 6.07137 6.0229 6.19408L6.07173 6.29303L6.07368 8.65616C6.07563 9.95647 6.06977 11.1044 6.06196 11.2073C6.05024 11.3914 6.04829 11.3953 5.97407 11.4626C5.85102 11.5774 5.83344 11.5814 5.28852 11.5952C5.06587 11.6012 4.94087 11.613 4.92133 11.6289C4.87837 11.6645 4.79829 12.0009 4.74946 12.3592C4.7436 12.3968 4.72602 12.5136 4.70844 12.6165C4.66548 12.8856 4.66938 13.0242 4.71626 13.0519C4.74165 13.0638 5.09126 13.0717 5.71821 13.0717C6.54633 13.0717 6.8061 13.0816 6.83735 13.1152C6.84126 13.1172 6.84712 13.5031 6.85102 13.9722C6.85688 14.5996 6.86469 14.8351 6.88227 14.8688L6.90766 14.9123H7.4604C7.88032 14.9123 8.01899 14.9064 8.03266 14.8886C8.07173 14.8391 8.07954 14.6768 8.07954 13.9742C8.07758 13.5803 8.08344 13.232 8.0893 13.1964C8.09712 13.1508 8.11665 13.1291 8.15376 13.1152C8.22212 13.0915 8.75337 13.1113 8.78852 13.139C8.81196 13.1568 8.81782 13.2993 8.82563 13.9821C8.82954 14.5422 8.8393 14.8213 8.85493 14.8569L8.87837 14.9123H9.43305C9.92329 14.9123 9.98969 14.9083 10.0131 14.8787C10.0346 14.8529 10.0424 14.6748 10.0502 13.9801C10.0561 13.5051 10.0659 13.1093 10.0737 13.1014C10.0854 13.0895 10.2944 13.0598 10.6166 13.0242C11.1967 12.9628 11.7377 12.8144 12.1284 12.6105C12.978 12.1692 13.3764 11.3973 13.3452 10.2514C13.3374 9.90897 13.3041 9.6972 13.2358 9.53887C13.226 9.51709 13.1987 9.44782 13.1752 9.38647C13.0932 9.17074 12.8745 8.88772 12.6772 8.74126C12.6245 8.70168 12.5737 8.66012 12.5659 8.64824C12.5581 8.63834 12.5502 8.63637 12.5502 8.64626C12.5502 8.65616 12.5327 8.64824 12.5131 8.63043C12.4702 8.59084 12.2573 8.47605 12.2573 8.49189C12.2573 8.49782 12.228 8.48595 12.1948 8.46418C12.1596 8.44043 12.1225 8.42459 12.1147 8.42459C12.0913 8.42459 12.0034 8.35532 12.0034 8.33553C12.0034 8.32564 12.0815 8.23855 12.1791 8.14355C12.5385 7.78532 12.6889 7.43501 12.7182 6.89074C12.7456 6.39793 12.6088 5.8873 12.3588 5.54689C12.2592 5.41033 12.062 5.2223 11.9155 5.12137C11.7963 5.04022 11.5366 4.89772 11.4916 4.8898C11.478 4.88783 11.4311 4.87001 11.3881 4.85022C11.1713 4.75324 10.6401 4.62658 10.3979 4.6147C10.3569 4.61272 10.3237 4.60481 10.3237 4.59491C10.3237 4.58699 10.2983 4.58106 10.267 4.58106C10.1733 4.58106 10.1166 4.54939 10.0834 4.47616C10.0541 4.41481 10.0502 4.31189 10.0483 3.65678C10.0483 3.10856 10.0405 2.89085 10.0229 2.83939C9.99751 2.77012 9.99555 2.77012 9.85298 2.75429C9.7729 2.74439 9.53071 2.74241 9.31196 2.74637C8.87055 2.75429 8.8686 2.75429 8.8393 2.89085C8.82954 2.93241 8.82173 3.28668 8.81977 3.67658C8.81977 4.12189 8.81196 4.39897 8.80024 4.42272C8.78852 4.44449 8.76118 4.4722 8.73579 4.48408C8.67915 4.51574 8.24165 4.52366 8.17915 4.49595C8.08344 4.45043 8.07954 4.4247 8.07758 3.62314C8.07758 2.86512 8.06977 2.79585 8.00141 2.77012C7.98383 2.7622 7.87837 2.75429 7.76508 2.74835C7.48774 2.73449 7.33344 2.73054 7.32954 2.73251ZM9.22993 6.00803C9.50727 6.03376 9.85102 6.12283 10.0268 6.21189C10.3979 6.39991 10.5756 6.73835 10.5209 7.1421C10.4975 7.30637 10.4702 7.37366 10.3706 7.50626C10.3002 7.59928 10.1518 7.72793 10.1147 7.72793C10.101 7.72793 10.0893 7.73387 10.0893 7.74376C10.0893 7.77147 9.78852 7.89616 9.67524 7.91595C9.64008 7.92189 9.57563 7.93772 9.53266 7.94762C9.42133 7.97928 9.3979 7.98324 9.24165 7.9971C9.16548 8.00303 9.09516 8.01491 9.0854 8.01887C9.07758 8.0248 8.88227 8.03272 8.65571 8.03668L8.24165 8.0446L8.17915 7.98918L8.11665 7.93574L8.11469 7.05501C8.11469 6.57012 8.11469 6.14064 8.11469 6.09908C8.11665 6.04168 8.12641 6.01991 8.16157 6.00605C8.22212 5.9823 8.9604 5.9823 9.22993 6.00803ZM9.39594 9.33105C10.3881 9.41814 10.9174 9.72293 11.0268 10.2712C11.0541 10.4057 11.0405 10.5997 10.9936 10.7462C10.9545 10.8708 10.9272 10.9164 10.7983 11.0648C10.7553 11.1143 10.56 11.2489 10.4506 11.3043C10.3276 11.3676 10.0034 11.4725 9.85493 11.4963C9.81782 11.5022 9.76508 11.5121 9.73774 11.518C9.62837 11.5398 9.5854 11.5457 9.44477 11.5556C9.36469 11.5616 9.22798 11.5734 9.14204 11.5814C8.88618 11.6031 8.24555 11.5952 8.19868 11.5695C8.17524 11.5576 8.14594 11.5279 8.13423 11.5042C8.10883 11.4567 8.10493 9.37262 8.13032 9.34887C8.14008 9.34095 8.16743 9.33105 8.19477 9.32512C8.29438 9.3073 9.16938 9.31324 9.39594 9.33105Z" fill="#FF9800"/>
</svg>
