<svg width="22" height="19" viewBox="0 0 22 19" fill="none" xmlns="http://www.w3.org/2000/svg">
<path d="M2.01911 9.90792C2.02922 9.90455 2.03957 9.90263 2.04944 9.89854C2.0711 9.88963 2.09108 9.8776 2.11082 9.8658C2.1178 9.86171 2.1255 9.85882 2.13224 9.85425C2.15848 9.83668 2.18303 9.8167 2.20541 9.79432L4.0963 7.90342C4.28428 7.71544 4.28428 7.41072 4.0963 7.22274C3.90856 7.03476 3.60336 7.03476 3.41562 7.22274L2.43961 8.19876C3.04832 4.10985 6.58194 0.962775 10.8376 0.962775C14.1395 0.962775 17.1674 2.90084 18.5521 5.89989C18.6636 6.14155 18.95 6.24625 19.1907 6.13529C19.4321 6.02385 19.5373 5.7379 19.4261 5.49649C17.8847 2.15734 14.5138 0 10.8376 0C6.14027 0 2.23381 3.44385 1.50644 7.93929L0.892667 6.93054C0.754509 6.70357 0.458697 6.63112 0.231241 6.76952C0.00402619 6.90767 -0.0679412 7.20397 0.0702169 7.43094L1.45348 9.70454C1.45517 9.70743 1.45782 9.70959 1.45974 9.71248C1.47442 9.73559 1.49151 9.75701 1.51005 9.77723C1.51462 9.78204 1.51799 9.78782 1.5228 9.79263C1.54639 9.81646 1.57263 9.83764 1.60079 9.85641C1.60825 9.86147 1.61667 9.86484 1.62438 9.86917C1.6458 9.88169 1.66794 9.89324 1.69129 9.90239C1.70236 9.90672 1.71391 9.90937 1.72523 9.91298C1.74665 9.91948 1.76831 9.92501 1.7907 9.92838C1.79647 9.92935 1.80153 9.93175 1.8073 9.93223C1.82656 9.9344 1.84557 9.9356 1.86459 9.9356C1.8966 9.9356 1.92837 9.93223 1.95942 9.92597C1.98036 9.92188 1.99962 9.91466 2.01911 9.90792Z" fill="#0E57D6"/>
<path d="M21.5921 11.4777L20.2086 9.20391C20.2067 9.20102 20.204 9.19861 20.2023 9.19572C20.1879 9.1731 20.171 9.15216 20.153 9.13242C20.1482 9.12712 20.1443 9.12087 20.1393 9.11581C20.1157 9.09198 20.0894 9.0708 20.0613 9.05227C20.0536 9.04721 20.0452 9.04384 20.0372 9.03927C20.0158 9.02676 19.9939 9.01544 19.9705 9.0063C19.9592 9.00196 19.9474 8.99908 19.9359 8.99547C19.9149 8.98921 19.8938 8.98367 19.8719 8.9803C19.8658 8.97934 19.8605 8.97693 19.8545 8.97621C19.8461 8.97525 19.8379 8.97669 19.8295 8.97597C19.8184 8.97525 19.8081 8.97284 19.7972 8.97284C19.7874 8.97284 19.7782 8.97525 19.7686 8.97573C19.7537 8.97669 19.739 8.97789 19.7241 8.9803C19.7041 8.98343 19.6846 8.988 19.6656 8.99354C19.6523 8.99739 19.6391 9.00076 19.6261 9.00581C19.6054 9.01376 19.5859 9.02363 19.5667 9.03422C19.5565 9.03975 19.546 9.04457 19.5361 9.05082C19.5074 9.06936 19.4805 9.0903 19.4564 9.11437L17.5655 11.0053C17.3775 11.1932 17.3775 11.498 17.5655 11.6859C17.7535 11.8739 18.0582 11.8739 18.2462 11.6859L19.2222 10.7099C18.6135 14.7988 15.0799 17.9459 10.8242 17.9459C7.40344 17.9459 4.33218 15.9101 2.9997 12.7594C2.89621 12.5144 2.61387 12.4003 2.36885 12.5038C2.12406 12.6073 2.00949 12.8897 2.11323 13.1347C3.59662 16.6423 7.01592 18.9087 10.8244 18.9087C15.5216 18.9087 19.4283 15.4648 20.1556 10.9699L20.7694 11.9789C20.8601 12.1276 21.0188 12.2099 21.1812 12.2099C21.2664 12.2099 21.3528 12.1873 21.4311 12.1399C21.658 12.0013 21.7302 11.705 21.5921 11.4777Z" fill="#0E57D6"/>
</svg>
