<svg width="22" height="23" viewBox="0 0 22 23" fill="none" xmlns="http://www.w3.org/2000/svg">
<path d="M0.122683 15.4177C0.240288 15.3102 0.412758 15.2891 0.553223 15.3633C4.57515 17.4965 9.51099 16.0776 11.7884 12.1329C14.0658 8.18816 12.8273 3.20482 8.96869 0.787698C8.83381 0.703368 8.7665 0.543091 8.80079 0.387893C8.83483 0.232442 8.96285 0.115091 9.12059 0.0950245C11.6208 -0.226293 14.0966 0.270797 16.2818 1.5327C18.925 3.058 20.8158 5.52237 21.6057 8.47061C22.3957 11.4189 21.9903 14.4982 20.464 17.1416C18.9379 19.785 16.4738 21.6759 13.5256 22.4658C12.541 22.7295 11.542 22.86 10.5494 22.86C8.56939 22.86 6.61507 22.3409 4.85456 21.3243C2.66985 20.0629 1.00103 18.167 0.0292072 15.8414C-0.0322628 15.6945 0.00533104 15.5251 0.122683 15.4177Z" fill="black"/>
</svg>
