<svg width="26" height="19" viewBox="0 0 26 19" fill="none" xmlns="http://www.w3.org/2000/svg">
<path d="M6.36635 7.88691C4.52718 7.88691 3.02246 6.38219 3.02246 4.54302V3.34389C3.02246 1.50472 4.52718 0 6.36635 0C8.20551 0 9.71023 1.50472 9.71023 3.34389V4.54302C9.71023 6.38219 8.20551 7.88691 6.36635 7.88691Z" fill="#F0582F"/>
<path d="M19.099 7.88691C17.2599 7.88691 15.7552 6.38219 15.7552 4.54302V3.34389C15.7552 1.50472 17.2599 0 19.099 0C20.9382 0 22.4429 1.50472 22.4429 3.34389V4.54302C22.4429 6.38219 20.9382 7.88691 19.099 7.88691Z" fill="#71D456"/>
<path d="M12.7327 11.9792C11.4008 11.9792 10.3109 10.8893 10.3109 9.55746V8.68909C10.3109 7.35725 11.4008 6.26733 12.7327 6.26733C14.0645 6.26733 15.1544 7.35725 15.1544 8.68909V9.55746C15.1544 10.8893 14.0645 11.9792 12.7327 11.9792Z" fill="#6EB1E1"/>
<path d="M14.0962 12.312C13.6865 12.5242 13.2236 12.6461 12.7327 12.6461C12.2418 12.6461 11.7786 12.5239 11.3692 12.312C9.5382 12.5853 8.12204 14.174 8.12204 16.078V18.5832C8.12204 18.8124 8.30963 19 8.53882 19H16.9268C17.156 19 17.3436 18.8124 17.3436 18.5832V16.078C17.3436 14.174 15.9272 12.5853 14.0962 12.312Z" fill="#6EB1E1"/>
<path d="M6.84877 16.0777C6.84877 14.1403 7.97321 12.4095 9.63044 11.5573C9.25694 10.9801 9.03766 10.2945 9.03766 9.55742V8.68877C9.03766 8.63671 9.04332 8.58606 9.04558 8.53457C8.78753 8.45308 8.52269 8.38715 8.24936 8.34641C7.68375 8.63926 7.04429 8.80789 6.36662 8.80789C5.68896 8.80789 5.0495 8.63926 4.48389 8.34641C1.95546 8.72386 0 10.9176 0 13.5461V17.0049C0 17.3215 0.258898 17.5804 0.575517 17.5804H6.84849V16.0777H6.84877Z" fill="#F0582F"/>
<path d="M20.9818 8.34641C20.4161 8.63926 19.7767 8.80789 19.099 8.80789C18.4214 8.80789 17.7819 8.63926 17.2163 8.34641C16.9429 8.38715 16.6781 8.45308 16.4198 8.53457C16.422 8.58606 16.4277 8.63671 16.4277 8.68877V9.55742C16.4277 10.2945 16.2084 10.9801 15.8352 11.5573C17.4924 12.4095 18.6172 14.1403 18.6172 16.0777V17.5807H24.8901C25.2067 17.5807 25.4656 17.3218 25.4656 17.0052V13.5461C25.4654 10.9176 23.5099 8.72386 20.9818 8.34641Z" fill="#71D456"/>
</svg>
